<svg width="2000px" height="773px"
 viewBox="0.00 0.00 1394.79 539.04" xmlns="http://www.w3.org/2000/svg" xmlns:xlink="http://www.w3.org/1999/xlink">
<g id="graph0" class="graph" transform="scale(1.0 1.0) rotate(0) translate(4 535.04)">
<title>ContextMapGraph</title>
<polygon fill="white" stroke="transparent" points="-4,4 -4,-535.04 1390.79,-535.04 1390.79,4 -4,4"/>
<!-- AutorizacionAutenticacionContext -->
<g id="node1" class="node">
<title>AutorizacionAutenticacionContext</title>
<polygon fill="none" stroke="black" stroke-width="2" points="618.74,-352.05 614.97,-354.82 610.62,-357.54 605.71,-360.2 600.25,-362.79 594.27,-365.3 587.77,-367.71 580.79,-370.02 573.35,-372.23 565.46,-374.31 557.15,-376.26 548.44,-378.08 539.36,-379.76 529.94,-381.3 520.2,-382.69 510.17,-383.92 499.87,-384.99 489.33,-385.91 478.58,-386.66 467.65,-387.26 456.57,-387.69 445.36,-387.96 434.06,-388.08 422.68,-388.04 411.27,-387.86 399.84,-387.52 388.43,-387.04 377.06,-386.42 365.76,-385.67 354.56,-384.79 343.49,-383.8 332.56,-382.68 321.82,-381.47 311.28,-380.15 300.98,-378.74 290.93,-377.25 281.16,-375.67 271.69,-374.03 262.55,-372.32 253.76,-370.56 245.35,-368.75 237.33,-366.89 229.73,-365 222.56,-363.08 215.85,-361.13 209.61,-359.16 203.86,-357.18 198.62,-355.18 193.9,-353.19 189.72,-351.18 186.09,-349.19 183.03,-347.19 180.53,-345.2 178.62,-343.23 177.3,-341.26 176.58,-339.31 176.46,-337.37 176.95,-335.46 178.05,-333.56 179.76,-331.68 182.07,-329.82 184.99,-327.99 188.51,-326.18 192.63,-324.39 197.33,-322.63 202.61,-320.9 208.46,-319.2 214.86,-317.53 221.79,-315.89 229.24,-314.29 237.2,-312.72 245.64,-311.2 254.53,-309.72 263.86,-308.28 273.61,-306.9 283.73,-305.56 294.21,-304.29 305.02,-303.08 316.12,-301.93 327.48,-300.86 339.08,-299.86 350.87,-298.95 362.82,-298.12 374.9,-297.38 387.07,-296.74 399.29,-296.2 411.53,-295.77 423.75,-295.45 435.92,-295.25 447.99,-295.17 459.93,-295.21 471.7,-295.39 483.27,-295.69 494.6,-296.14 505.66,-296.72 516.42,-297.44 526.84,-298.3 536.88,-299.3 546.53,-300.44 555.76,-301.73 564.52,-303.15 572.81,-304.71 580.6,-306.4 587.86,-308.22 594.57,-310.17 600.72,-312.24 606.28,-314.42 611.25,-316.71 615.62,-319.1 619.36,-321.58 622.48,-324.14 624.96,-326.78 626.81,-329.48 628.02,-332.23 628.58,-335.03 628.51,-337.85 627.8,-340.7 626.46,-343.55 624.5,-346.4 621.92,-349.24 618.74,-352.05"/>
<text text-anchor="middle" x="401.06" y="-336.42" font-family="sans-serif" font-size="16.00">AutorizacionAutenticacionContext</text>
</g>
<!-- ResenasContext -->
<g id="node2" class="node">
<title>ResenasContext</title>
<polygon fill="none" stroke="black" stroke-width="2" points="98.21,-152.58 105.82,-151.63 113.49,-150.8 121.19,-150.1 128.89,-149.53 136.56,-149.09 144.17,-148.78 151.69,-148.61 159.09,-148.58 166.35,-148.68 173.44,-148.93 180.34,-149.31 187.03,-149.84 193.48,-150.5 199.69,-151.29 205.62,-152.22 211.26,-153.29 216.61,-154.48 221.65,-155.79 226.37,-157.22 230.77,-158.77 234.83,-160.43 238.55,-162.19 241.93,-164.06 244.97,-166.01 247.68,-168.05 250.04,-170.16 252.07,-172.35 253.77,-174.6 255.14,-176.9 256.19,-179.26 256.93,-181.65 257.37,-184.07 257.52,-186.51 257.38,-188.97 256.96,-191.44 256.28,-193.91 255.34,-196.36 254.15,-198.8 252.72,-201.21 251.06,-203.59 249.18,-205.93 247.09,-208.23 244.8,-210.47 242.3,-212.65 239.62,-214.76 236.75,-216.81 233.7,-218.78 230.48,-220.66 227.09,-222.46 223.54,-224.18 219.83,-225.79 215.95,-227.31 211.93,-228.74 207.75,-230.05 203.42,-231.27 198.95,-232.37 194.33,-233.37 189.57,-234.26 184.67,-235.04 179.63,-235.71 174.47,-236.27 169.17,-236.72 163.76,-237.06 158.22,-237.29 152.57,-237.41 146.82,-237.42 140.98,-237.32 135.04,-237.12 129.03,-236.82 122.95,-236.41 116.82,-235.9 110.66,-235.3 104.46,-234.59 98.26,-233.8 92.07,-232.91 85.9,-231.93 79.78,-230.86 73.73,-229.71 67.76,-228.47 61.89,-227.16 56.16,-225.77 50.58,-224.3 45.18,-222.76 39.97,-221.15 34.99,-219.48 30.25,-217.74 25.78,-215.94 21.59,-214.09 17.72,-212.18 14.18,-210.22 11,-208.22 8.18,-206.18 5.75,-204.1 3.73,-201.98 2.13,-199.84 0.95,-197.67 0.22,-195.48 -0.06,-193.27 0.12,-191.06 0.76,-188.84 1.87,-186.62 3.44,-184.41 5.48,-182.21 7.97,-180.03 10.92,-177.88 14.3,-175.75 18.12,-173.66 22.36,-171.61 27,-169.61 32.02,-167.66 37.41,-165.78 43.14,-163.96 49.18,-162.22 55.53,-160.56 62.14,-158.98 68.99,-157.49 76.05,-156.11 83.29,-154.82 90.69,-153.64 98.21,-152.58"/>
<text text-anchor="middle" x="137.06" y="-190.64" font-family="sans-serif" font-size="16.00">ResenasContext</text>
</g>
<!-- AutorizacionAutenticacionContext&#45;&gt;ResenasContext -->
<g id="edge1" class="edge">
<title>AutorizacionAutenticacionContext&#45;&gt;ResenasContext</title>
<path fill="none" stroke="black" stroke-width="2" d="M304.74,-302.92C284.93,-294.34 264.5,-284.64 246.06,-274.29 225.69,-262.86 204.6,-248.33 186.46,-234.86"/>
<text text-anchor="middle" x="321.56" y="-264.69" font-family="sans-serif" font-size="12.00"> &#160;&#160;&#160;&#160;&#160;&#160;&#160;&#160;&#160;&#160;&#160;&#160;&#160;&#160;&#160;&#160;&#160;&#160;&#160;&#160;&#160;&#160;&#160;&#160;&#160;&#160;&#160;&#160;&#160;&#160;&#160;&#160;&#160;&#160;&#160;&#160;&#160;&#160;&#160;</text>
<polygon fill="white" stroke="transparent" points="179.46,-225.86 179.46,-242.86 193.46,-242.86 193.46,-225.86 179.46,-225.86"/>
<text text-anchor="start" x="181.46" y="-231.26" font-family="sans-serif" font-size="12.00">D</text>
<polygon fill="white" stroke="transparent" points="297.74,-293.92 297.74,-310.92 311.74,-310.92 311.74,-293.92 297.74,-293.92"/>
<text text-anchor="start" x="299.74" y="-299.32" font-family="sans-serif" font-size="12.00">U</text>
</g>
<!-- BlogContext -->
<g id="node3" class="node">
<title>BlogContext</title>
<polygon fill="none" stroke="black" stroke-width="2" points="322.46,-166.54 326.64,-164.31 331.01,-162.18 335.55,-160.14 340.25,-158.21 345.09,-156.4 350.05,-154.71 355.12,-153.16 360.28,-151.74 365.5,-150.47 370.78,-149.34 376.09,-148.37 381.43,-147.55 386.77,-146.89 392.1,-146.4 397.4,-146.06 402.66,-145.9 407.88,-145.89 413.03,-146.05 418.1,-146.37 423.08,-146.85 427.96,-147.48 432.74,-148.26 437.39,-149.19 441.92,-150.26 446.32,-151.47 450.57,-152.8 454.67,-154.26 458.62,-155.83 462.41,-157.51 466.04,-159.29 469.49,-161.16 472.77,-163.12 475.87,-165.14 478.79,-167.24 481.52,-169.39 484.06,-171.59 486.41,-173.83 488.57,-176.11 490.52,-178.4 492.28,-180.71 493.83,-183.04 495.18,-185.36 496.31,-187.67 497.24,-189.98 497.95,-192.26 498.44,-194.52 498.72,-196.74 498.77,-198.94 498.6,-201.09 498.21,-203.19 497.58,-205.25 496.73,-207.26 495.65,-209.21 494.33,-211.1 492.78,-212.94 491,-214.71 488.99,-216.41 486.74,-218.06 484.26,-219.63 481.54,-221.14 478.6,-222.58 475.44,-223.95 472.05,-225.26 468.44,-226.49 464.63,-227.65 460.61,-228.74 456.39,-229.76 451.98,-230.7 447.38,-231.58 442.62,-232.38 437.7,-233.1 432.63,-233.75 427.42,-234.32 422.09,-234.82 416.65,-235.23 411.12,-235.57 405.52,-235.82 399.86,-235.99 394.16,-236.08 388.43,-236.07 382.7,-235.98 376.98,-235.79 371.3,-235.51 365.68,-235.14 360.13,-234.67 354.67,-234.1 349.33,-233.42 344.12,-232.65 339.06,-231.78 334.18,-230.8 329.49,-229.71 325.01,-228.52 320.75,-227.23 316.74,-225.83 312.98,-224.33 309.5,-222.72 306.3,-221.02 303.4,-219.22 300.82,-217.33 298.55,-215.34 296.6,-213.27 294.99,-211.11 293.73,-208.88 292.8,-206.58 292.22,-204.21 291.99,-201.79 292.11,-199.31 292.57,-196.79 293.37,-194.24 294.51,-191.66 295.98,-189.06 297.77,-186.46 299.88,-183.86 302.29,-181.27 304.99,-178.7 307.98,-176.17 311.23,-173.67 314.74,-171.23 318.49,-168.85 322.46,-166.54"/>
<text text-anchor="middle" x="401.06" y="-190.64" font-family="sans-serif" font-size="16.00">BlogContext</text>
</g>
<!-- AutorizacionAutenticacionContext&#45;&gt;BlogContext -->
<g id="edge2" class="edge">
<title>AutorizacionAutenticacionContext&#45;&gt;BlogContext</title>
<path fill="none" stroke="black" stroke-width="2" d="M401.06,-296.08C401.06,-277.06 401.06,-254.82 401.06,-236.09"/>
<text text-anchor="middle" x="476.56" y="-264.69" font-family="sans-serif" font-size="12.00"> &#160;&#160;&#160;&#160;&#160;&#160;&#160;&#160;&#160;&#160;&#160;&#160;&#160;&#160;&#160;&#160;&#160;&#160;&#160;&#160;&#160;&#160;&#160;&#160;&#160;&#160;&#160;&#160;&#160;&#160;&#160;&#160;&#160;&#160;&#160;&#160;&#160;&#160;&#160;</text>
<polygon fill="white" stroke="transparent" points="394.06,-227.09 394.06,-244.09 408.06,-244.09 408.06,-227.09 394.06,-227.09"/>
<text text-anchor="start" x="396.06" y="-232.49" font-family="sans-serif" font-size="12.00">D</text>
<polygon fill="white" stroke="transparent" points="394.06,-287.08 394.06,-304.08 408.06,-304.08 408.06,-287.08 394.06,-287.08"/>
<text text-anchor="start" x="396.06" y="-292.48" font-family="sans-serif" font-size="12.00">U</text>
</g>
<!-- GestionClientesContext -->
<g id="node4" class="node">
<title>GestionClientesContext</title>
<polygon fill="none" stroke="black" stroke-width="2" points="661.62,-236.35 651.21,-235.57 640.99,-234.68 631.01,-233.69 621.31,-232.59 611.92,-231.38 602.89,-230.09 594.25,-228.7 586.04,-227.22 578.28,-225.65 571.01,-224.01 564.25,-222.3 558.02,-220.51 552.34,-218.66 547.24,-216.75 542.72,-214.79 538.79,-212.78 535.47,-210.72 532.76,-208.63 530.65,-206.51 529.16,-204.36 528.26,-202.18 527.97,-199.99 528.25,-197.79 529.11,-195.59 530.53,-193.38 532.49,-191.18 534.97,-189 537.95,-186.82 541.4,-184.67 545.31,-182.55 549.64,-180.45 554.37,-178.4 559.48,-176.38 564.93,-174.41 570.7,-172.49 576.76,-170.63 583.08,-168.83 589.64,-167.09 596.41,-165.42 603.36,-163.82 610.47,-162.3 617.71,-160.87 625.06,-159.51 632.5,-158.25 640.01,-157.08 647.57,-156 655.16,-155.02 662.76,-154.14 670.37,-153.37 677.97,-152.7 685.54,-152.14 693.07,-151.69 700.56,-151.36 707.99,-151.14 715.37,-151.03 722.67,-151.04 729.9,-151.17 737.06,-151.42 744.13,-151.78 751.11,-152.26 757.99,-152.86 764.78,-153.57 771.47,-154.4 778.05,-155.34 784.52,-156.39 790.87,-157.55 797.09,-158.82 803.19,-160.19 809.14,-161.66 814.95,-163.22 820.6,-164.88 826.08,-166.63 831.38,-168.46 836.48,-170.37 841.38,-172.35 846.05,-174.4 850.49,-176.51 854.67,-178.68 858.57,-180.89 862.19,-183.15 865.49,-185.45 868.47,-187.78 871.1,-190.13 873.36,-192.49 875.24,-194.87 876.71,-197.24 877.75,-199.61 878.36,-201.97 878.51,-204.31 878.19,-206.61 877.39,-208.89 876.08,-211.12 874.27,-213.31 871.94,-215.44 869.08,-217.5 865.7,-219.5 861.79,-221.43 857.35,-223.28 852.39,-225.04 846.9,-226.71 840.91,-228.29 834.42,-229.76 827.44,-231.14 820,-232.4 812.12,-233.55 803.81,-234.59 795.11,-235.52 786.03,-236.32 776.62,-237 766.91,-237.56 756.93,-237.99 746.72,-238.3 736.31,-238.49 725.75,-238.55 715.09,-238.49 704.35,-238.3 693.59,-237.99 682.86,-237.56 672.18,-237.01 661.62,-236.35"/>
<text text-anchor="middle" x="709.06" y="-190.64" font-family="sans-serif" font-size="16.00">GestionClientesContext</text>
</g>
<!-- AutorizacionAutenticacionContext&#45;&gt;GestionClientesContext -->
<g id="edge3" class="edge">
<title>AutorizacionAutenticacionContext&#45;&gt;GestionClientesContext</title>
<path fill="none" stroke="black" stroke-width="2" d="M505.77,-296.68C522.68,-289.43 539.93,-281.81 556.06,-274.29 582.6,-261.92 611.24,-247.46 636.48,-234.33"/>
<text text-anchor="middle" x="657.56" y="-264.69" font-family="sans-serif" font-size="12.00"> &#160;&#160;&#160;&#160;&#160;&#160;&#160;&#160;&#160;&#160;&#160;&#160;&#160;&#160;&#160;&#160;&#160;&#160;&#160;&#160;&#160;&#160;&#160;&#160;&#160;&#160;&#160;&#160;&#160;&#160;&#160;&#160;&#160;&#160;&#160;&#160;&#160;&#160;&#160;</text>
<polygon fill="white" stroke="transparent" points="617.48,-224.33 617.48,-243.33 633.48,-243.33 633.48,-224.33 617.48,-224.33"/>
<polyline fill="none" stroke="black" points="633.48,-224.33 633.48,-243.33 "/>
<text text-anchor="start" x="620.48" y="-230.73" font-family="sans-serif" font-size="12.00">D</text>
<polygon fill="white" stroke="transparent" points="633.48,-224.33 633.48,-243.33 655.48,-243.33 655.48,-224.33 633.48,-224.33"/>
<polygon fill="none" stroke="black" points="633.48,-224.33 633.48,-243.33 655.48,-243.33 655.48,-224.33 633.48,-224.33"/>
<text text-anchor="start" x="636.48" y="-230.73" font-family="sans-serif" font-size="12.00">CF</text>
<polygon fill="white" stroke="transparent" points="487.77,-286.68 487.77,-305.68 503.77,-305.68 503.77,-286.68 487.77,-286.68"/>
<polyline fill="none" stroke="black" points="503.77,-286.68 503.77,-305.68 "/>
<text text-anchor="start" x="490.77" y="-293.08" font-family="sans-serif" font-size="12.00">U</text>
<polygon fill="white" stroke="transparent" points="503.77,-286.68 503.77,-305.68 524.77,-305.68 524.77,-286.68 503.77,-286.68"/>
<polygon fill="none" stroke="black" points="503.77,-286.68 503.77,-305.68 524.77,-305.68 524.77,-286.68 503.77,-286.68"/>
<text text-anchor="start" x="506.77" y="-293.08" font-family="sans-serif" font-size="12.00">PL</text>
</g>
<!-- CatalogProductosContext -->
<g id="node5" class="node">
<title>CatalogProductosContext</title>
<polygon fill="none" stroke="black" stroke-width="2" points="1134.23,-450.31 1143.18,-452.1 1151.77,-453.98 1159.96,-455.93 1167.71,-457.95 1175,-460.04 1181.78,-462.17 1188.04,-464.35 1193.74,-466.56 1198.87,-468.81 1203.4,-471.08 1207.31,-473.36 1210.59,-475.66 1213.23,-477.95 1215.22,-480.24 1216.56,-482.52 1217.23,-484.79 1217.25,-487.03 1216.62,-489.24 1215.34,-491.42 1213.42,-493.56 1210.88,-495.66 1207.73,-497.72 1204,-499.72 1199.69,-501.66 1194.84,-503.55 1189.47,-505.38 1183.62,-507.15 1177.29,-508.85 1170.54,-510.48 1163.38,-512.03 1155.86,-513.52 1148.01,-514.93 1139.85,-516.26 1131.43,-517.51 1122.78,-518.69 1113.93,-519.78 1104.92,-520.79 1095.78,-521.72 1086.55,-522.56 1077.25,-523.31 1067.92,-523.98 1058.58,-524.56 1049.27,-525.05 1040.02,-525.45 1030.84,-525.75 1021.76,-525.96 1012.8,-526.08 1003.99,-526.11 995.34,-526.03 986.87,-525.86 978.6,-525.6 970.53,-525.23 962.69,-524.76 955.08,-524.2 947.71,-523.53 940.58,-522.77 933.72,-521.9 927.11,-520.93 920.78,-519.87 914.71,-518.7 908.92,-517.43 903.4,-516.07 898.17,-514.62 893.22,-513.07 888.55,-511.43 884.16,-509.7 880.07,-507.88 876.27,-505.99 872.75,-504.01 869.54,-501.97 866.63,-499.85 864.01,-497.67 861.71,-495.43 859.72,-493.14 858.05,-490.8 856.7,-488.42 855.68,-486.02 855,-483.58 854.67,-481.13 854.69,-478.67 855.06,-476.2 855.81,-473.75 856.93,-471.31 858.44,-468.89 860.33,-466.5 862.63,-464.15 865.33,-461.86 868.43,-459.62 871.96,-457.44 875.9,-455.35 880.26,-453.33 885.04,-451.4 890.24,-449.57 895.87,-447.85 901.9,-446.23 908.35,-444.73 915.2,-443.36 922.44,-442.11 930.05,-441 938.04,-440.02 946.37,-439.19 955.03,-438.5 964,-437.95 973.26,-437.55 982.78,-437.31 992.53,-437.21 1002.48,-437.26 1012.61,-437.45 1022.87,-437.8 1033.24,-438.29 1043.68,-438.92 1054.15,-439.69 1064.6,-440.6 1075.02,-441.63 1085.34,-442.8 1095.54,-444.08 1105.56,-445.48 1115.38,-446.99 1124.95,-448.6 1134.23,-450.31"/>
<text text-anchor="middle" x="1022.06" y="-480.3" font-family="sans-serif" font-size="16.00">CatalogProductosContext</text>
</g>
<!-- OrdenesContext -->
<g id="node6" class="node">
<title>OrdenesContext</title>
<polygon fill="none" stroke="black" stroke-width="2" points="974.34,-380.64 966.83,-379.58 959.49,-378.41 952.35,-377.14 945.46,-375.78 938.83,-374.32 932.5,-372.78 926.48,-371.16 920.81,-369.46 915.5,-367.69 910.57,-365.85 906.05,-363.96 901.94,-362.01 898.27,-360.01 895.03,-357.96 892.25,-355.89 889.93,-353.77 888.06,-351.64 886.66,-349.48 885.73,-347.3 885.25,-345.12 885.23,-342.93 885.66,-340.74 886.52,-338.56 887.82,-336.39 889.52,-334.23 891.63,-332.1 894.12,-329.99 896.98,-327.9 900.19,-325.86 903.73,-323.85 907.57,-321.88 911.7,-319.97 916.1,-318.1 920.74,-316.29 925.6,-314.54 930.66,-312.85 935.9,-311.23 941.3,-309.68 946.83,-308.21 952.47,-306.81 958.21,-305.49 964.02,-304.26 969.9,-303.12 975.81,-302.06 981.74,-301.1 987.69,-300.24 993.62,-299.47 999.54,-298.81 1005.43,-298.25 1011.28,-297.79 1017.08,-297.45 1022.82,-297.21 1028.49,-297.08 1034.09,-297.07 1039.61,-297.17 1045.04,-297.38 1050.39,-297.71 1055.64,-298.15 1060.79,-298.71 1065.84,-299.38 1070.79,-300.16 1075.63,-301.06 1080.36,-302.07 1084.98,-303.19 1089.48,-304.41 1093.86,-305.74 1098.12,-307.18 1102.25,-308.71 1106.24,-310.34 1110.1,-312.06 1113.81,-313.87 1117.37,-315.76 1120.78,-317.73 1124.01,-319.77 1127.07,-321.88 1129.94,-324.05 1132.61,-326.27 1135.08,-328.55 1137.33,-330.86 1139.35,-333.21 1141.13,-335.59 1142.66,-337.99 1143.92,-340.4 1144.9,-342.82 1145.59,-345.24 1145.98,-347.64 1146.06,-350.03 1145.81,-352.4 1145.23,-354.73 1144.31,-357.02 1143.04,-359.26 1141.41,-361.45 1139.41,-363.57 1137.04,-365.63 1134.31,-367.61 1131.2,-369.51 1127.72,-371.32 1123.87,-373.03 1119.65,-374.65 1115.08,-376.16 1110.15,-377.57 1104.88,-378.86 1099.29,-380.03 1093.37,-381.09 1087.16,-382.02 1080.67,-382.82 1073.92,-383.5 1066.93,-384.05 1059.73,-384.47 1052.34,-384.75 1044.78,-384.91 1037.09,-384.94 1029.29,-384.84 1021.42,-384.6 1013.5,-384.25 1005.57,-383.76 997.65,-383.16 989.79,-382.43 982.01,-381.59 974.34,-380.64"/>
<text text-anchor="middle" x="1022.06" y="-336.42" font-family="sans-serif" font-size="16.00">OrdenesContext</text>
</g>
<!-- CatalogProductosContext&#45;&gt;OrdenesContext -->
<g id="edge4" class="edge">
<title>CatalogProductosContext&#45;&gt;OrdenesContext</title>
<path fill="none" stroke="black" stroke-width="2" d="M1022.06,-437.42C1022.06,-420.58 1022.06,-401.54 1022.06,-384.87"/>
<text text-anchor="middle" x="1097.56" y="-409.55" font-family="sans-serif" font-size="12.00"> &#160;&#160;&#160;&#160;&#160;&#160;&#160;&#160;&#160;&#160;&#160;&#160;&#160;&#160;&#160;&#160;&#160;&#160;&#160;&#160;&#160;&#160;&#160;&#160;&#160;&#160;&#160;&#160;&#160;&#160;&#160;&#160;&#160;&#160;&#160;&#160;&#160;&#160;&#160;</text>
<polygon fill="white" stroke="transparent" points="1015.06,-375.87 1015.06,-392.87 1029.06,-392.87 1029.06,-375.87 1015.06,-375.87"/>
<text text-anchor="start" x="1017.06" y="-381.27" font-family="sans-serif" font-size="12.00">D</text>
<polygon fill="white" stroke="transparent" points="998.06,-427.42 998.06,-446.42 1014.06,-446.42 1014.06,-427.42 998.06,-427.42"/>
<polyline fill="none" stroke="black" points="1014.06,-427.42 1014.06,-446.42 "/>
<text text-anchor="start" x="1001.06" y="-433.82" font-family="sans-serif" font-size="12.00">U</text>
<polygon fill="white" stroke="transparent" points="1014.06,-427.42 1014.06,-446.42 1047.06,-446.42 1047.06,-427.42 1014.06,-427.42"/>
<polygon fill="none" stroke="black" points="1014.06,-427.42 1014.06,-446.42 1047.06,-446.42 1047.06,-427.42 1014.06,-427.42"/>
<text text-anchor="start" x="1017.06" y="-433.82" font-family="sans-serif" font-size="12.00">OHS</text>
</g>
<!-- OrdenesContext&#45;&gt;GestionClientesContext -->
<g id="edge5" class="edge">
<title>OrdenesContext&#45;&gt;GestionClientesContext</title>
<path fill="none" stroke="black" stroke-width="2" d="M951.81,-306.95C905.76,-285.8 845.22,-257.99 796.12,-235.43"/>
<text text-anchor="middle" x="909.56" y="-264.69" font-family="sans-serif" font-size="12.00">Partnership</text>
</g>
<!-- EnviosContext -->
<g id="node7" class="node">
<title>EnviosContext</title>
<polygon fill="none" stroke="black" stroke-width="2" points="1135.32,-194.93 1135.35,-197.8 1135.06,-200.64 1134.46,-203.45 1133.55,-206.22 1132.33,-208.94 1130.8,-211.59 1128.97,-214.17 1126.83,-216.66 1124.41,-219.07 1121.69,-221.37 1118.69,-223.56 1115.42,-225.64 1111.89,-227.59 1108.1,-229.42 1104.07,-231.11 1099.8,-232.66 1095.31,-234.07 1090.61,-235.34 1085.72,-236.46 1080.65,-237.43 1075.41,-238.26 1070.01,-238.94 1064.48,-239.47 1058.83,-239.86 1053.07,-240.11 1047.23,-240.22 1041.31,-240.19 1035.34,-240.04 1029.34,-239.75 1023.31,-239.35 1017.28,-238.82 1011.27,-238.19 1005.29,-237.45 999.36,-236.6 993.5,-235.67 987.72,-234.64 982.04,-233.53 976.47,-232.34 971.04,-231.08 965.76,-229.76 960.64,-228.37 955.69,-226.93 950.94,-225.43 946.39,-223.89 942.05,-222.3 937.94,-220.68 934.08,-219.02 930.46,-217.33 927.1,-215.61 924,-213.86 921.19,-212.09 918.65,-210.3 916.41,-208.49 914.45,-206.66 912.8,-204.82 911.45,-202.96 910.4,-201.09 909.67,-199.2 909.24,-197.3 909.12,-195.4 909.31,-193.48 909.8,-191.56 910.6,-189.63 911.7,-187.7 913.1,-185.76 914.79,-183.83 916.77,-181.9 919.03,-179.97 921.57,-178.05 924.37,-176.14 927.44,-174.25 930.75,-172.37 934.31,-170.52 938.1,-168.7 942.11,-166.91 946.33,-165.15 950.75,-163.44 955.36,-161.78 960.14,-160.18 965.09,-158.64 970.18,-157.16 975.41,-155.76 980.77,-154.45 986.23,-153.22 991.79,-152.09 997.42,-151.06 1003.12,-150.14 1008.88,-149.33 1014.66,-148.65 1020.47,-148.09 1026.29,-147.67 1032.09,-147.39 1037.87,-147.24 1043.61,-147.25 1049.3,-147.4 1054.92,-147.71 1060.45,-148.17 1065.88,-148.79 1071.21,-149.57 1076.4,-150.5 1081.45,-151.59 1086.35,-152.83 1091.09,-154.22 1095.64,-155.77 1099.99,-157.45 1104.15,-159.28 1108.08,-161.24 1111.79,-163.32 1115.26,-165.52 1118.48,-167.84 1121.45,-170.26 1124.14,-172.77 1126.57,-175.36 1128.71,-178.03 1130.56,-180.75 1132.12,-183.53 1133.38,-186.35 1134.33,-189.2 1134.98,-192.07 1135.32,-194.93"/>
<text text-anchor="middle" x="1022.06" y="-190.64" font-family="sans-serif" font-size="16.00">EnviosContext</text>
</g>
<!-- OrdenesContext&#45;&gt;EnviosContext -->
<g id="edge6" class="edge">
<title>OrdenesContext&#45;&gt;EnviosContext</title>
<path fill="none" stroke="black" stroke-width="2" d="M1022.06,-296.86C1022.06,-278.72 1022.06,-257.54 1022.06,-239.25"/>
<text text-anchor="middle" x="1056.56" y="-264.69" font-family="sans-serif" font-size="12.00">Partnership</text>
</g>
<!-- PagosContext -->
<g id="node9" class="node">
<title>PagosContext</title>
<polygon fill="none" stroke="black" stroke-width="2" points="1357.2,-221.19 1352.9,-223.48 1348.37,-225.69 1343.66,-227.79 1338.76,-229.79 1333.7,-231.68 1328.5,-233.44 1323.18,-235.07 1317.75,-236.57 1312.23,-237.93 1306.64,-239.13 1301,-240.19 1295.33,-241.08 1289.63,-241.82 1283.93,-242.4 1278.24,-242.81 1272.59,-243.06 1266.97,-243.14 1261.41,-243.06 1255.91,-242.81 1250.5,-242.41 1245.19,-241.85 1239.97,-241.14 1234.87,-240.28 1229.9,-239.28 1225.06,-238.13 1220.36,-236.86 1215.8,-235.46 1211.41,-233.95 1207.18,-232.33 1203.12,-230.6 1199.23,-228.78 1195.53,-226.87 1192.01,-224.89 1188.68,-222.83 1185.55,-220.72 1182.61,-218.56 1179.88,-216.35 1177.36,-214.11 1175.05,-211.84 1172.96,-209.55 1171.08,-207.25 1169.43,-204.95 1168,-202.64 1166.8,-200.35 1165.83,-198.08 1165.1,-195.83 1164.61,-193.6 1164.36,-191.41 1164.35,-189.25 1164.59,-187.14 1165.09,-185.07 1165.83,-183.05 1166.82,-181.08 1168.07,-179.17 1169.58,-177.31 1171.35,-175.51 1173.37,-173.77 1175.65,-172.09 1178.19,-170.48 1180.98,-168.92 1184.02,-167.44 1187.31,-166.02 1190.84,-164.66 1194.62,-163.38 1198.63,-162.16 1202.87,-161.01 1207.33,-159.92 1212,-158.91 1216.87,-157.97 1221.93,-157.1 1227.17,-156.3 1232.58,-155.57 1238.14,-154.92 1243.84,-154.35 1249.66,-153.85 1255.59,-153.43 1261.61,-153.09 1267.7,-152.84 1273.83,-152.67 1280.01,-152.59 1286.19,-152.6 1292.36,-152.7 1298.51,-152.89 1304.6,-153.18 1310.63,-153.57 1316.56,-154.06 1322.37,-154.65 1328.05,-155.35 1333.58,-156.15 1338.93,-157.06 1344.08,-158.07 1349.01,-159.19 1353.71,-160.43 1358.16,-161.77 1362.34,-163.21 1366.23,-164.76 1369.83,-166.42 1373.11,-168.18 1376.07,-170.04 1378.69,-171.99 1380.96,-174.04 1382.88,-176.17 1384.45,-178.38 1385.65,-180.67 1386.48,-183.03 1386.94,-185.46 1387.03,-187.94 1386.76,-190.47 1386.12,-193.03 1385.12,-195.63 1383.76,-198.25 1382.06,-200.88 1380.02,-203.52 1377.64,-206.15 1374.96,-208.76 1371.96,-211.34 1368.67,-213.89 1365.11,-216.38 1361.28,-218.82 1357.2,-221.19"/>
<text text-anchor="middle" x="1270.06" y="-190.64" font-family="sans-serif" font-size="16.00">PagosContext</text>
</g>
<!-- OrdenesContext&#45;&gt;PagosContext -->
<g id="edge7" class="edge">
<title>OrdenesContext&#45;&gt;PagosContext</title>
<path fill="none" stroke="black" stroke-width="2" d="M1084.64,-302.94C1121.94,-281.31 1169.18,-253.93 1206.63,-232.21"/>
<text text-anchor="middle" x="1188.56" y="-264.69" font-family="sans-serif" font-size="12.00">Partnership</text>
</g>
<!-- UbicacionTiendasContext -->
<g id="node8" class="node">
<title>UbicacionTiendasContext</title>
<polygon fill="none" stroke="black" stroke-width="2" points="1188.19,-63 1184.48,-65.71 1180.33,-68.36 1175.76,-70.94 1170.78,-73.44 1165.42,-75.85 1159.69,-78.17 1153.61,-80.37 1147.2,-82.46 1140.47,-84.43 1133.45,-86.26 1126.17,-87.95 1118.63,-89.5 1110.86,-90.9 1102.89,-92.15 1094.73,-93.24 1086.42,-94.17 1077.96,-94.94 1069.38,-95.55 1060.71,-95.99 1051.96,-96.27 1043.15,-96.39 1034.32,-96.36 1025.48,-96.17 1016.64,-95.82 1007.84,-95.33 999.09,-94.7 990.42,-93.93 981.83,-93.04 973.36,-92.01 965.02,-90.87 956.83,-89.62 948.81,-88.26 940.98,-86.81 933.35,-85.27 925.94,-83.64 918.78,-81.95 911.87,-80.19 905.23,-78.37 898.89,-76.49 892.85,-74.58 887.13,-72.62 881.74,-70.64 876.7,-68.63 872.02,-66.6 867.71,-64.56 863.8,-62.5 860.28,-60.45 857.16,-58.4 854.47,-56.35 852.21,-54.31 850.38,-52.29 849,-50.28 848.06,-48.28 847.59,-46.31 847.57,-44.36 848.02,-42.43 848.94,-40.53 850.33,-38.66 852.18,-36.81 854.51,-35 857.29,-33.21 860.54,-31.46 864.25,-29.74 868.4,-28.05 873,-26.4 878.03,-24.79 883.48,-23.21 889.33,-21.67 895.59,-20.18 902.22,-18.73 909.21,-17.33 916.55,-15.97 924.22,-14.67 932.19,-13.42 940.45,-12.24 948.96,-11.11 957.71,-10.05 966.68,-9.06 975.82,-8.15 985.13,-7.31 994.56,-6.56 1004.1,-5.9 1013.71,-5.33 1023.36,-4.85 1033.03,-4.48 1042.68,-4.22 1052.28,-4.07 1061.81,-4.03 1071.22,-4.11 1080.51,-4.32 1089.62,-4.65 1098.54,-5.11 1107.24,-5.7 1115.69,-6.43 1123.86,-7.29 1131.73,-8.29 1139.27,-9.42 1146.46,-10.69 1153.28,-12.09 1159.7,-13.62 1165.72,-15.29 1171.3,-17.08 1176.44,-18.99 1181.12,-21.02 1185.33,-23.16 1189.05,-25.4 1192.27,-27.75 1195,-30.18 1197.22,-32.7 1198.93,-35.29 1200.12,-37.95 1200.8,-40.66 1200.97,-43.41 1200.63,-46.2 1199.78,-49.01 1198.43,-51.83 1196.58,-54.66 1194.26,-57.47 1191.45,-60.25 1188.19,-63"/>
<text text-anchor="middle" x="1022.06" y="-44.5" font-family="sans-serif" font-size="16.00">UbicacionTiendasContext</text>
</g>
<!-- EnviosContext&#45;&gt;UbicacionTiendasContext -->
<g id="edge8" class="edge">
<title>EnviosContext&#45;&gt;UbicacionTiendasContext</title>
<path fill="none" stroke="black" stroke-width="2" d="M1022.06,-147.83C1022.06,-131.34 1022.06,-112.69 1022.06,-96.1"/>
<text text-anchor="middle" x="1097.56" y="-118" font-family="sans-serif" font-size="12.00"> &#160;&#160;&#160;&#160;&#160;&#160;&#160;&#160;&#160;&#160;&#160;&#160;&#160;&#160;&#160;&#160;&#160;&#160;&#160;&#160;&#160;&#160;&#160;&#160;&#160;&#160;&#160;&#160;&#160;&#160;&#160;&#160;&#160;&#160;&#160;&#160;&#160;&#160;&#160;</text>
<polygon fill="white" stroke="transparent" points="999.06,-86.1 999.06,-105.1 1015.06,-105.1 1015.06,-86.1 999.06,-86.1"/>
<polyline fill="none" stroke="black" points="1015.06,-86.1 1015.06,-105.1 "/>
<text text-anchor="start" x="1002.06" y="-92.5" font-family="sans-serif" font-size="12.00">D</text>
<polygon fill="white" stroke="transparent" points="1015.06,-86.1 1015.06,-105.1 1045.06,-105.1 1045.06,-86.1 1015.06,-86.1"/>
<polygon fill="none" stroke="black" points="1015.06,-86.1 1015.06,-105.1 1045.06,-105.1 1045.06,-86.1 1015.06,-86.1"/>
<text text-anchor="start" x="1018.06" y="-92.5" font-family="sans-serif" font-size="12.00">ACL</text>
<polygon fill="white" stroke="transparent" points="1015.06,-138.83 1015.06,-155.83 1029.06,-155.83 1029.06,-138.83 1015.06,-138.83"/>
<text text-anchor="start" x="1017.06" y="-144.23" font-family="sans-serif" font-size="12.00">U</text>
</g>
</g>
</svg>
